<svg xmlns="http://www.w3.org/2000/svg" xmlns:xlink="http://www.w3.org/1999/xlink" width="1920" zoomAndPan="magnify" viewBox="0 0 1440 809.999993" height="1080" preserveAspectRatio="xMidYMid meet" version="1.0"><defs><clipPath id="9d4007de85"><path d="M 643 425.117188 L 975 425.117188 L 975 578.433594 L 643 578.433594 Z M 643 425.117188 " clip-rule="nonzero"/></clipPath><clipPath id="2af621831f"><path d="M 856 220 L 1079.480469 220 L 1079.480469 562 L 856 562 Z M 856 220 " clip-rule="nonzero"/></clipPath><clipPath id="aed32f56f2"><path d="M 290.5625 210 L 518 210 L 518 562 L 290.5625 562 Z M 290.5625 210 " clip-rule="nonzero"/></clipPath><clipPath id="eb5e01bf5e"><path d="M 608.601562 299.660156 L 978.859375 299.660156 L 978.859375 669.917969 L 608.601562 669.917969 Z M 608.601562 299.660156 " clip-rule="nonzero"/></clipPath><clipPath id="58a8e5ee59"><path d="M 793.730469 299.660156 C 691.484375 299.660156 608.601562 382.542969 608.601562 484.789062 C 608.601562 587.03125 691.484375 669.917969 793.730469 669.917969 C 895.972656 669.917969 978.859375 587.03125 978.859375 484.789062 C 978.859375 382.542969 895.972656 299.660156 793.730469 299.660156 Z M 793.730469 299.660156 " clip-rule="nonzero"/></clipPath><clipPath id="860d4de790"><path d="M 418 373 L 768 373 L 768 578 L 418 578 Z M 418 373 " clip-rule="nonzero"/></clipPath><clipPath id="a73fd36983"><path d="M 468.738281 624.960938 L 416.164062 373.140625 L 735.527344 306.460938 L 788.101562 558.28125 Z M 468.738281 624.960938 " clip-rule="nonzero"/></clipPath><clipPath id="ed76e97a33"><path d="M 468.738281 624.960938 L 416.164062 373.140625 L 735.527344 306.460938 L 788.101562 558.28125 Z M 468.738281 624.960938 " clip-rule="nonzero"/></clipPath><clipPath id="35dc6b04f3"><path d="M 468.738281 624.960938 L 416.164062 373.140625 L 735.527344 306.460938 L 788.101562 558.28125 Z M 468.738281 624.960938 " clip-rule="nonzero"/></clipPath></defs><path fill="#fcea10" d="M 406.082031 262.019531 L 469.949219 325.875 C 484.359375 311.46875 500.210938 298.492188 517.273438 287.1875 C 565.359375 255.328125 623.03125 236.769531 685.054688 236.769531 C 748.71875 236.769531 807.800781 256.320312 856.644531 289.761719 C 872.261719 300.441406 886.820312 312.535156 900.152344 325.867188 L 964.007812 262.019531 C 948.898438 246.898438 932.570312 233.019531 915.1875 220.515625 C 850.402344 173.914062 770.941406 146.464844 685.054688 146.464844 C 605.34375 146.464844 531.175781 170.097656 469.152344 210.742188 C 446.390625 225.636719 425.253906 242.847656 406.082031 262.019531 " fill-opacity="1" fill-rule="nonzero"/><path fill="#ef1606" d="M 932.085938 293.941406 L 964.007812 262.007812 Z M 932.085938 293.941406 " fill-opacity="1" fill-rule="nonzero"/><path fill="#ef1606" d="M 989.25 540.972656 C 989.25 456.972656 955.203125 380.929688 900.152344 325.875 L 900.152344 325.867188 C 955.203125 380.917969 989.25 456.972656 989.25 540.972656 " fill-opacity="1" fill-rule="nonzero"/><g clip-path="url(#9d4007de85)"><path fill="#2c2c2c" d="M 660.171875 535.5625 C 668.609375 557.386719 692.578125 569.480469 715.136719 563.25 C 728.113281 559.671875 738.125 550.996094 743.769531 540.078125 C 744.363281 538.957031 744.890625 537.816406 745.378906 536.652344 C 749.558594 526.640625 750.226562 515.117188 746.433594 504.050781 C 742.640625 492.992188 735.042969 484.316406 725.601562 478.980469 C 725.589844 478.980469 725.578125 478.96875 725.578125 478.96875 C 724.480469 478.34375 723.359375 477.773438 722.207031 477.246094 C 711.847656 472.472656 699.714844 471.523438 688.085938 475.523438 C 663.53125 483.949219 650.730469 511.121094 660.171875 535.5625 Z M 872.894531 439.621094 L 974.871094 425.632812 L 876.054688 482.851562 C 828.160156 510.589844 781.449219 540.285156 734.425781 569.480469 C 730.34375 572.023438 725.859375 574.113281 721.042969 575.644531 C 691.445312 585.085938 659.136719 569.8125 647.699219 540.929688 C 635.125 509.148438 651.710938 473.65625 683.675781 462.6875 C 688.578125 461.003906 693.546875 460.003906 698.484375 459.625 C 756.832031 455.152344 814.914062 447.566406 872.894531 439.621094 " fill-opacity="1" fill-rule="nonzero"/></g><g clip-path="url(#2af621831f)"><path fill="#ea0f0f" d="M 915.1875 220.515625 C 932.570312 233.019531 948.898438 246.898438 964.007812 262.019531 C 976.164062 274.167969 987.523438 287.109375 998.011719 300.753906 C 1049.160156 367.273438 1079.5625 450.582031 1079.5625 540.972656 C 1079.5625 547.933594 1079.382812 554.855469 1079.015625 561.71875 L 988.558594 561.71875 C 989.023438 554.863281 989.261719 547.945312 989.261719 540.972656 C 989.261719 468.957031 964.214844 402.761719 922.386719 350.664062 C 915.433594 342 908.007812 333.710938 900.152344 325.867188 C 886.820312 312.535156 872.261719 300.441406 856.644531 289.761719 L 915.1875 220.515625 " fill-opacity="1" fill-rule="nonzero"/></g><g clip-path="url(#aed32f56f2)"><path fill="#36b209" d="M 372.261719 300.515625 C 382.703125 286.949219 394 274.101562 406.082031 262.019531 C 425.253906 242.847656 446.390625 225.636719 469.152344 210.742188 L 517.273438 287.1875 C 500.210938 298.492188 484.359375 311.46875 469.949219 325.875 L 469.9375 325.867188 C 461.390625 334.414062 453.351562 343.464844 445.871094 352.972656 C 405.144531 404.722656 380.839844 470.015625 380.839844 540.972656 C 380.839844 547.945312 381.078125 554.863281 381.539062 561.71875 L 291.074219 561.71875 C 290.71875 554.855469 290.535156 547.933594 290.535156 540.972656 C 290.535156 450.464844 321.003906 367.078125 372.261719 300.515625 " fill-opacity="1" fill-rule="nonzero"/></g><g clip-path="url(#eb5e01bf5e)"><g clip-path="url(#58a8e5ee59)"><path fill="#ffffff" d="M 608.601562 299.660156 L 978.859375 299.660156 L 978.859375 669.917969 L 608.601562 669.917969 Z M 608.601562 299.660156 " fill-opacity="1" fill-rule="nonzero"/></g></g><g clip-path="url(#860d4de790)"><g clip-path="url(#a73fd36983)"><g clip-path="url(#ed76e97a33)"><g clip-path="url(#35dc6b04f3)"><path fill="#030303" d="M 704.027344 575.765625 C 665.609375 583.730469 627.105469 562.441406 613.554688 525.65625 C 611.507812 520.089844 610.039062 514.304688 609.519531 508.382812 C 609.238281 505.15625 607.730469 503.335938 605.121094 501.589844 C 544.335938 460.890625 483.597656 420.117188 422.90625 379.28125 C 421.019531 378.011719 417.066406 377.179688 418.277344 374.453125 C 419.128906 372.535156 422.542969 374.617188 424.695312 375.246094 C 493.578125 395.320312 562.449219 415.425781 631.285156 435.65625 C 635.339844 436.847656 638.246094 436.617188 641.882812 433.988281 C 684.253906 403.378906 744.351562 421.734375 762.398438 470.617188 C 779.230469 516.199219 751.640625 565.898438 704.027344 575.765625 Z M 704.027344 575.765625 " fill-opacity="1" fill-rule="nonzero"/></g></g></g></g></svg>