<svg xmlns="http://www.w3.org/2000/svg" xmlns:xlink="http://www.w3.org/1999/xlink" width="1920" zoomAndPan="magnify" viewBox="0 0 1440 809.999993" height="1080" preserveAspectRatio="xMidYMid meet" version="1.0"><defs><clipPath id="cf0a04fbd9"><path d="M 708 149.679688 L 1008 149.679688 L 1008 374 L 708 374 Z M 708 149.679688 " clip-rule="nonzero"/></clipPath><clipPath id="231e099dc0"><path d="M 900.257812 266.460938 L 1131.71875 266.460938 L 1131.71875 562 L 900.257812 562 Z M 900.257812 266.460938 " clip-rule="nonzero"/></clipPath><clipPath id="7e22bc47e0"><path d="M 422 149.679688 L 711 149.679688 L 711 383 L 422 383 Z M 422 149.679688 " clip-rule="nonzero"/></clipPath><clipPath id="afd5810ce5"><path d="M 308.230469 275 L 532 275 L 532 562 L 308.230469 562 Z M 308.230469 275 " clip-rule="nonzero"/></clipPath><clipPath id="5749cf8866"><path d="M 633 360 L 743 360 L 743 573.429688 L 633 573.429688 Z M 633 360 " clip-rule="nonzero"/></clipPath><clipPath id="54730935cc"><path d="M 598.5 330.804688 L 841.5 330.804688 L 841.5 598.484375 L 598.5 598.484375 Z M 598.5 330.804688 " clip-rule="nonzero"/></clipPath><clipPath id="7fb531eb52"><path d="M 720 330.804688 C 652.898438 330.804688 598.5 390.625 598.5 464.421875 C 598.5 538.21875 652.898438 598.042969 720 598.042969 C 787.101562 598.042969 841.5 538.21875 841.5 464.421875 C 841.5 390.625 787.101562 330.804688 720 330.804688 Z M 720 330.804688 " clip-rule="nonzero"/></clipPath><clipPath id="5777967292"><path d="M 418 432 L 784 432 L 784 592 L 418 592 Z M 418 432 " clip-rule="nonzero"/></clipPath><clipPath id="9bc9130b50"><path d="M 508.035156 672.515625 L 415.902344 432.328125 L 720.511719 315.484375 L 812.644531 555.667969 Z M 508.035156 672.515625 " clip-rule="nonzero"/></clipPath><clipPath id="2d6543c2af"><path d="M 508.035156 672.515625 L 415.902344 432.328125 L 720.511719 315.484375 L 812.644531 555.667969 Z M 508.035156 672.515625 " clip-rule="nonzero"/></clipPath><clipPath id="c48c311df7"><path d="M 508.035156 672.515625 L 415.902344 432.328125 L 720.511719 315.484375 L 812.644531 555.667969 Z M 508.035156 672.515625 " clip-rule="nonzero"/></clipPath></defs><g clip-path="url(#cf0a04fbd9)"><path fill="#ff7200" d="M 1007.25 266.847656 C 933.015625 194.445312 831.625 149.757812 719.972656 149.757812 C 716.203125 149.757812 712.4375 149.816406 708.691406 149.917969 L 708.691406 300.675781 C 712.4375 300.519531 716.195312 300.417969 719.972656 300.417969 C 790.082031 300.417969 853.824219 328.203125 900.773438 373.328125 C 915.609375 358.492188 930.4375 343.664062 945.273438 328.824219 C 965.929688 308.167969 986.59375 287.503906 1007.25 266.847656 " fill-opacity="1" fill-rule="nonzero"/></g><g clip-path="url(#231e099dc0)"><path fill="#ef1606" d="M 981.058594 561.503906 L 1131.71875 561.503906 C 1131.742188 531.441406 1128.527344 493.609375 1116.847656 451.667969 C 1091.078125 359.15625 1038.335938 297.742188 1007.25 266.847656 C 971.757812 302.34375 936.265625 337.835938 900.773438 373.328125 C 920.746094 392.933594 955.023438 432.28125 971.625 491.835938 C 979.027344 518.410156 981.074219 542.40625 981.058594 561.503906 " fill-opacity="1" fill-rule="nonzero"/></g><g clip-path="url(#7e22bc47e0)"><path fill="#fcea10" d="M 709.738281 149.882812 C 596.867188 152.660156 495.121094 201.066406 422.285156 277.324219 C 436.617188 291.433594 450.949219 305.535156 465.269531 319.640625 C 486.730469 340.753906 508.183594 361.875 529.644531 382.992188 C 575.382812 334.253906 639.5625 303.03125 710.929688 300.59375 L 709.738281 149.882812 " fill-opacity="1" fill-rule="nonzero"/></g><g clip-path="url(#afd5810ce5)"><path fill="#36b209" d="M 424.480469 275.078125 C 352.574219 349.25 308.230469 450.292969 308.230469 561.503906 L 458.886719 561.503906 C 458.886719 491.394531 486.671875 427.652344 531.796875 380.707031 L 424.480469 275.078125 " fill-opacity="1" fill-rule="nonzero"/></g><g clip-path="url(#5749cf8866)"><path fill="#020202" d="M 633.578125 360.183594 L 716.203125 514.6875 C 718.539062 514.945312 720.886719 515.449219 723.1875 516.296875 C 738.539062 521.949219 746.40625 538.964844 740.761719 554.316406 C 735.109375 569.667969 718.089844 577.535156 702.742188 571.890625 C 687.390625 566.246094 679.523438 549.21875 685.167969 533.867188 C 686.179688 531.117188 687.570312 528.621094 689.238281 526.382812 L 633.578125 360.183594 " fill-opacity="1" fill-rule="nonzero"/></g><g clip-path="url(#54730935cc)"><g clip-path="url(#7fb531eb52)"><path fill="#ffffff" d="M 598.5 330.804688 L 841.5 330.804688 L 841.5 598.484375 L 598.5 598.484375 Z M 598.5 330.804688 " fill-opacity="1" fill-rule="nonzero"/></g></g><g clip-path="url(#5777967292)"><g clip-path="url(#9bc9130b50)"><g clip-path="url(#2d6543c2af)"><g clip-path="url(#c48c311df7)"><path fill="#030303" d="M 732.445312 586.363281 C 695.792969 600.359375 654.378906 585.496094 635.128906 551.347656 C 632.214844 546.179688 629.839844 540.707031 628.382812 534.945312 C 627.589844 531.804688 625.808594 530.246094 622.957031 528.9375 C 556.449219 498.476562 489.976562 467.929688 423.542969 437.3125 C 421.476562 436.359375 417.441406 436.171875 418.199219 433.285156 C 418.734375 431.257812 422.4375 432.769531 424.664062 433.042969 C 495.867188 441.859375 567.066406 450.699219 638.25 459.671875 C 642.441406 460.199219 645.273438 459.507812 648.445312 456.332031 C 685.382812 419.347656 747.640625 427.867188 773.265625 473.238281 C 797.160156 515.546875 777.867188 569.015625 732.445312 586.363281 Z M 732.445312 586.363281 " fill-opacity="1" fill-rule="nonzero"/></g></g></g></g></svg>