<svg xmlns="http://www.w3.org/2000/svg" xmlns:xlink="http://www.w3.org/1999/xlink" width="1920" zoomAndPan="magnify" viewBox="0 0 1440 809.999993" height="1080" preserveAspectRatio="xMidYMid meet" version="1.0"><defs><clipPath id="4ba940d491"><path d="M 643 425.117188 L 975 425.117188 L 975 578.4375 L 643 578.4375 Z M 643 425.117188 " clip-rule="nonzero"/></clipPath><clipPath id="b7ed5d8d7c"><path d="M 856 220 L 1079.480469 220 L 1079.480469 562 L 856 562 Z M 856 220 " clip-rule="nonzero"/></clipPath><clipPath id="c0b6ff5296"><path d="M 290.5625 210 L 518 210 L 518 562 L 290.5625 562 Z M 290.5625 210 " clip-rule="nonzero"/></clipPath><clipPath id="1059995f23"><path d="M 608.601562 299.660156 L 978.859375 299.660156 L 978.859375 669.917969 L 608.601562 669.917969 Z M 608.601562 299.660156 " clip-rule="nonzero"/></clipPath><clipPath id="69b2e23c00"><path d="M 793.730469 299.660156 C 691.484375 299.660156 608.601562 382.542969 608.601562 484.789062 C 608.601562 587.03125 691.484375 669.917969 793.730469 669.917969 C 895.972656 669.917969 978.859375 587.03125 978.859375 484.789062 C 978.859375 382.542969 895.972656 299.660156 793.730469 299.660156 Z M 793.730469 299.660156 " clip-rule="nonzero"/></clipPath><clipPath id="5a635a38e6"><path d="M 609 230 L 769 230 L 769 607 L 609 607 Z M 609 230 " clip-rule="nonzero"/></clipPath><clipPath id="f53984d20c"><path d="M 485.78125 375.976562 L 696.097656 227.835938 L 883.96875 494.5625 L 673.65625 642.703125 Z M 485.78125 375.976562 " clip-rule="nonzero"/></clipPath><clipPath id="375f477de4"><path d="M 485.78125 375.976562 L 696.097656 227.835938 L 883.96875 494.5625 L 673.65625 642.703125 Z M 485.78125 375.976562 " clip-rule="nonzero"/></clipPath><clipPath id="f42e0c5613"><path d="M 485.78125 375.976562 L 696.097656 227.835938 L 883.96875 494.5625 L 673.65625 642.703125 Z M 485.78125 375.976562 " clip-rule="nonzero"/></clipPath></defs><path fill="#fcea10" d="M 406.082031 262.019531 L 469.949219 325.875 C 484.359375 311.46875 500.210938 298.492188 517.273438 287.1875 C 565.359375 255.328125 623.03125 236.769531 685.054688 236.769531 C 748.71875 236.769531 807.800781 256.320312 856.644531 289.761719 C 872.261719 300.441406 886.820312 312.535156 900.152344 325.867188 L 964.007812 262.019531 C 948.898438 246.898438 932.570312 233.019531 915.1875 220.515625 C 850.402344 173.914062 770.941406 146.464844 685.054688 146.464844 C 605.34375 146.464844 531.175781 170.097656 469.152344 210.742188 C 446.390625 225.636719 425.253906 242.847656 406.082031 262.019531 " fill-opacity="1" fill-rule="nonzero"/><path fill="#ef1606" d="M 932.085938 293.941406 L 964.007812 262.007812 Z M 932.085938 293.941406 " fill-opacity="1" fill-rule="nonzero"/><path fill="#ef1606" d="M 989.25 540.972656 C 989.25 456.972656 955.203125 380.929688 900.152344 325.875 L 900.152344 325.867188 C 955.203125 380.917969 989.25 456.972656 989.25 540.972656 " fill-opacity="1" fill-rule="nonzero"/><g clip-path="url(#4ba940d491)"><path fill="#2c2c2c" d="M 660.171875 535.5625 C 668.609375 557.386719 692.578125 569.480469 715.136719 563.25 C 728.113281 559.671875 738.125 550.996094 743.769531 540.078125 C 744.363281 538.957031 744.890625 537.816406 745.378906 536.652344 C 749.558594 526.640625 750.226562 515.117188 746.433594 504.050781 C 742.640625 492.992188 735.042969 484.316406 725.601562 478.980469 C 725.589844 478.980469 725.578125 478.96875 725.578125 478.96875 C 724.480469 478.34375 723.359375 477.773438 722.207031 477.246094 C 711.847656 472.472656 699.714844 471.523438 688.085938 475.523438 C 663.53125 483.949219 650.730469 511.121094 660.171875 535.5625 Z M 872.894531 439.621094 L 974.871094 425.632812 L 876.054688 482.851562 C 828.160156 510.589844 781.449219 540.285156 734.425781 569.480469 C 730.34375 572.023438 725.859375 574.113281 721.042969 575.644531 C 691.445312 585.085938 659.136719 569.8125 647.699219 540.929688 C 635.125 509.148438 651.710938 473.65625 683.675781 462.6875 C 688.578125 461.003906 693.546875 460.003906 698.484375 459.625 C 756.832031 455.152344 814.914062 447.566406 872.894531 439.621094 " fill-opacity="1" fill-rule="nonzero"/></g><g clip-path="url(#b7ed5d8d7c)"><path fill="#ea0f0f" d="M 915.1875 220.515625 C 932.570312 233.019531 948.898438 246.898438 964.007812 262.019531 C 976.164062 274.167969 987.523438 287.109375 998.011719 300.753906 C 1049.160156 367.273438 1079.5625 450.582031 1079.5625 540.972656 C 1079.5625 547.933594 1079.382812 554.855469 1079.015625 561.71875 L 988.558594 561.71875 C 989.023438 554.867188 989.261719 547.945312 989.261719 540.972656 C 989.261719 468.957031 964.214844 402.761719 922.386719 350.664062 C 915.433594 342 908.007812 333.710938 900.152344 325.867188 C 886.820312 312.535156 872.261719 300.441406 856.644531 289.761719 L 915.1875 220.515625 " fill-opacity="1" fill-rule="nonzero"/></g><g clip-path="url(#c0b6ff5296)"><path fill="#36b209" d="M 372.261719 300.515625 C 382.703125 286.949219 394 274.101562 406.082031 262.019531 C 425.253906 242.847656 446.390625 225.636719 469.152344 210.742188 L 517.273438 287.1875 C 500.210938 298.492188 484.359375 311.46875 469.949219 325.875 L 469.9375 325.867188 C 461.390625 334.414062 453.351562 343.464844 445.871094 352.972656 C 405.144531 404.726562 380.839844 470.015625 380.839844 540.972656 C 380.839844 547.945312 381.078125 554.867188 381.539062 561.71875 L 291.074219 561.71875 C 290.71875 554.855469 290.535156 547.933594 290.535156 540.972656 C 290.535156 450.464844 321.003906 367.078125 372.261719 300.515625 " fill-opacity="1" fill-rule="nonzero"/></g><g clip-path="url(#1059995f23)"><g clip-path="url(#69b2e23c00)"><path fill="#ffffff" d="M 608.601562 299.660156 L 978.859375 299.660156 L 978.859375 669.917969 L 608.601562 669.917969 Z M 608.601562 299.660156 " fill-opacity="1" fill-rule="nonzero"/></g></g><g clip-path="url(#5a635a38e6)"><g clip-path="url(#f53984d20c)"><g clip-path="url(#375f477de4)"><g clip-path="url(#f42e0c5613)"><path fill="#030303" d="M 624.257812 572.457031 C 601.710938 540.347656 605.984375 496.558594 634.378906 469.53125 C 638.675781 465.441406 643.402344 461.800781 648.632812 458.976562 C 651.480469 457.4375 652.554688 455.328125 653.125 452.242188 C 666.375 380.300781 679.714844 308.375 693.132812 236.464844 C 693.550781 234.230469 692.746094 230.269531 695.730469 230.300781 C 697.828125 230.320312 697.269531 234.28125 697.546875 236.503906 C 706.4375 307.699219 715.300781 378.898438 724.027344 450.113281 C 724.542969 454.304688 725.90625 456.878906 729.761719 459.179688 C 774.667969 485.9375 781.648438 548.386719 743.9375 584.339844 C 708.765625 617.867188 652.199219 612.25 624.257812 572.457031 Z M 624.257812 572.457031 " fill-opacity="1" fill-rule="nonzero"/></g></g></g></g></svg>