<svg xmlns="http://www.w3.org/2000/svg" xmlns:xlink="http://www.w3.org/1999/xlink" width="1920" zoomAndPan="magnify" viewBox="0 0 1440 809.999993" height="1080" preserveAspectRatio="xMidYMid meet" version="1.0"><defs><clipPath id="6a20d3b2b6"><path d="M 708 149.679688 L 1008 149.679688 L 1008 374 L 708 374 Z M 708 149.679688 " clip-rule="nonzero"/></clipPath><clipPath id="5ec8789d77"><path d="M 900.257812 266.460938 L 1131.71875 266.460938 L 1131.71875 562 L 900.257812 562 Z M 900.257812 266.460938 " clip-rule="nonzero"/></clipPath><clipPath id="f509988582"><path d="M 422 149.679688 L 711 149.679688 L 711 383 L 422 383 Z M 422 149.679688 " clip-rule="nonzero"/></clipPath><clipPath id="b33aafca91"><path d="M 308.230469 275 L 532 275 L 532 562 L 308.230469 562 Z M 308.230469 275 " clip-rule="nonzero"/></clipPath><clipPath id="3878b8d1cc"><path d="M 633 360 L 743 360 L 743 573.429688 L 633 573.429688 Z M 633 360 " clip-rule="nonzero"/></clipPath><clipPath id="df2f468f02"><path d="M 598.5 330.804688 L 841.5 330.804688 L 841.5 598.484375 L 598.5 598.484375 Z M 598.5 330.804688 " clip-rule="nonzero"/></clipPath><clipPath id="d83ac6bebd"><path d="M 720 330.804688 C 652.898438 330.804688 598.5 390.625 598.5 464.421875 C 598.5 538.21875 652.898438 598.042969 720 598.042969 C 787.101562 598.042969 841.5 538.21875 841.5 464.421875 C 841.5 390.625 787.101562 330.804688 720 330.804688 Z M 720 330.804688 " clip-rule="nonzero"/></clipPath><clipPath id="0fd565142d"><path d="M 613 242 L 804 242 L 804 598 L 613 598 Z M 613 242 " clip-rule="nonzero"/></clipPath><clipPath id="2027705786"><path d="M 478.394531 458.054688 L 614.621094 239.835938 L 891.371094 412.601562 L 755.144531 630.820312 Z M 478.394531 458.054688 " clip-rule="nonzero"/></clipPath><clipPath id="5ec7f3a73a"><path d="M 478.394531 458.054688 L 614.621094 239.835938 L 891.371094 412.601562 L 755.144531 630.820312 Z M 478.394531 458.054688 " clip-rule="nonzero"/></clipPath><clipPath id="ac3e1b11d4"><path d="M 478.394531 458.054688 L 614.621094 239.835938 L 891.371094 412.601562 L 755.144531 630.820312 Z M 478.394531 458.054688 " clip-rule="nonzero"/></clipPath></defs><g clip-path="url(#6a20d3b2b6)"><path fill="#ff7200" d="M 1007.25 266.847656 C 933.015625 194.445312 831.625 149.757812 719.972656 149.757812 C 716.203125 149.757812 712.4375 149.816406 708.691406 149.917969 L 708.691406 300.675781 C 712.4375 300.519531 716.195312 300.417969 719.972656 300.417969 C 790.082031 300.417969 853.824219 328.203125 900.773438 373.328125 C 915.609375 358.492188 930.4375 343.664062 945.273438 328.824219 C 965.929688 308.167969 986.59375 287.503906 1007.25 266.847656 " fill-opacity="1" fill-rule="nonzero"/></g><g clip-path="url(#5ec8789d77)"><path fill="#ef1606" d="M 981.058594 561.503906 L 1131.71875 561.503906 C 1131.742188 531.441406 1128.527344 493.609375 1116.847656 451.667969 C 1091.078125 359.15625 1038.335938 297.742188 1007.25 266.847656 C 971.757812 302.34375 936.265625 337.835938 900.773438 373.328125 C 920.746094 392.933594 955.023438 432.28125 971.625 491.835938 C 979.027344 518.410156 981.074219 542.40625 981.058594 561.503906 " fill-opacity="1" fill-rule="nonzero"/></g><g clip-path="url(#f509988582)"><path fill="#fcea10" d="M 709.738281 149.882812 C 596.867188 152.660156 495.121094 201.066406 422.285156 277.324219 C 436.617188 291.433594 450.949219 305.535156 465.269531 319.640625 C 486.730469 340.753906 508.183594 361.875 529.644531 382.992188 C 575.382812 334.253906 639.5625 303.03125 710.929688 300.59375 L 709.738281 149.882812 " fill-opacity="1" fill-rule="nonzero"/></g><g clip-path="url(#b33aafca91)"><path fill="#36b209" d="M 424.480469 275.078125 C 352.574219 349.25 308.230469 450.292969 308.230469 561.503906 L 458.886719 561.503906 C 458.886719 491.394531 486.671875 427.652344 531.796875 380.707031 L 424.480469 275.078125 " fill-opacity="1" fill-rule="nonzero"/></g><g clip-path="url(#3878b8d1cc)"><path fill="#020202" d="M 633.578125 360.183594 L 716.203125 514.6875 C 718.539062 514.945312 720.886719 515.449219 723.1875 516.296875 C 738.539062 521.949219 746.40625 538.964844 740.761719 554.316406 C 735.109375 569.667969 718.089844 577.535156 702.742188 571.890625 C 687.390625 566.246094 679.523438 549.21875 685.167969 533.867188 C 686.179688 531.117188 687.570312 528.621094 689.238281 526.382812 L 633.578125 360.183594 " fill-opacity="1" fill-rule="nonzero"/></g><g clip-path="url(#df2f468f02)"><g clip-path="url(#d83ac6bebd)"><path fill="#ffffff" d="M 598.5 330.804688 L 841.5 330.804688 L 841.5 598.484375 L 598.5 598.484375 Z M 598.5 330.804688 " fill-opacity="1" fill-rule="nonzero"/></g></g><g clip-path="url(#0fd565142d)"><g clip-path="url(#2027705786)"><g clip-path="url(#5ec7f3a73a)"><g clip-path="url(#ac3e1b11d4)"><path fill="#030303" d="M 682.332031 585.289062 C 649.082031 564.464844 636.003906 522.457031 651.664062 486.519531 C 654.035156 481.078125 656.976562 475.886719 660.695312 471.253906 C 662.726562 468.726562 662.894531 466.367188 662.222656 463.304688 C 646.476562 391.867188 630.820312 320.40625 615.246094 248.933594 C 614.761719 246.710938 612.480469 243.375 615.242188 242.246094 C 617.179688 241.449219 618.207031 245.3125 619.328125 247.257812 C 655.179688 309.402344 691.011719 371.5625 726.726562 433.789062 C 728.828125 437.453125 731.085938 439.296875 735.53125 439.914062 C 787.304688 447.121094 818.003906 501.953125 797.222656 549.734375 C 777.84375 594.292969 723.542969 611.097656 682.332031 585.289062 Z M 682.332031 585.289062 " fill-opacity="1" fill-rule="nonzero"/></g></g></g></g></svg>