<svg xmlns="http://www.w3.org/2000/svg" xmlns:xlink="http://www.w3.org/1999/xlink" width="1920" zoomAndPan="magnify" viewBox="0 0 1440 809.999993" height="1080" preserveAspectRatio="xMidYMid meet" version="1.0"><defs><clipPath id="732c01b2be"><path d="M 643 425.117188 L 975 425.117188 L 975 578.4375 L 643 578.4375 Z M 643 425.117188 " clip-rule="nonzero"/></clipPath><clipPath id="204051d388"><path d="M 856 220 L 1079.480469 220 L 1079.480469 562 L 856 562 Z M 856 220 " clip-rule="nonzero"/></clipPath><clipPath id="5a2647134a"><path d="M 290.5625 210 L 518 210 L 518 562 L 290.5625 562 Z M 290.5625 210 " clip-rule="nonzero"/></clipPath><clipPath id="748512cb92"><path d="M 608.601562 299.660156 L 978.859375 299.660156 L 978.859375 669.917969 L 608.601562 669.917969 Z M 608.601562 299.660156 " clip-rule="nonzero"/></clipPath><clipPath id="927cb9b3ac"><path d="M 793.730469 299.660156 C 691.484375 299.660156 608.601562 382.542969 608.601562 484.789062 C 608.601562 587.03125 691.484375 669.917969 793.730469 669.917969 C 895.972656 669.917969 978.859375 587.03125 978.859375 484.789062 C 978.859375 382.542969 895.972656 299.660156 793.730469 299.660156 Z M 793.730469 299.660156 " clip-rule="nonzero"/></clipPath><clipPath id="94411a25a3"><path d="M 606 390 L 961 390 L 961 584 L 606 584 Z M 606 390 " clip-rule="nonzero"/></clipPath><clipPath id="434bd16dfe"><path d="M 743.335938 257.210938 L 963.101562 390.925781 L 793.523438 669.640625 L 573.757812 535.925781 Z M 743.335938 257.210938 " clip-rule="nonzero"/></clipPath><clipPath id="cce321cf10"><path d="M 743.335938 257.210938 L 963.101562 390.925781 L 793.523438 669.640625 L 573.757812 535.925781 Z M 743.335938 257.210938 " clip-rule="nonzero"/></clipPath><clipPath id="80d311f13c"><path d="M 743.335938 257.210938 L 963.101562 390.925781 L 793.523438 669.640625 L 573.757812 535.925781 Z M 743.335938 257.210938 " clip-rule="nonzero"/></clipPath></defs><path fill="#fcea10" d="M 406.082031 262.019531 L 469.949219 325.875 C 484.359375 311.46875 500.210938 298.492188 517.273438 287.1875 C 565.359375 255.328125 623.03125 236.769531 685.054688 236.769531 C 748.71875 236.769531 807.800781 256.320312 856.644531 289.761719 C 872.261719 300.441406 886.820312 312.535156 900.152344 325.867188 L 964.007812 262.019531 C 948.898438 246.898438 932.570312 233.019531 915.1875 220.515625 C 850.402344 173.914062 770.941406 146.464844 685.054688 146.464844 C 605.34375 146.464844 531.175781 170.097656 469.152344 210.742188 C 446.390625 225.636719 425.253906 242.847656 406.082031 262.019531 " fill-opacity="1" fill-rule="nonzero"/><path fill="#ef1606" d="M 932.085938 293.941406 L 964.007812 262.007812 Z M 932.085938 293.941406 " fill-opacity="1" fill-rule="nonzero"/><path fill="#ef1606" d="M 989.25 540.972656 C 989.25 456.972656 955.203125 380.929688 900.152344 325.875 L 900.152344 325.867188 C 955.203125 380.917969 989.25 456.972656 989.25 540.972656 " fill-opacity="1" fill-rule="nonzero"/><g clip-path="url(#732c01b2be)"><path fill="#2c2c2c" d="M 660.171875 535.5625 C 668.609375 557.386719 692.578125 569.480469 715.136719 563.25 C 728.113281 559.671875 738.125 550.996094 743.769531 540.078125 C 744.363281 538.957031 744.890625 537.816406 745.378906 536.652344 C 749.558594 526.640625 750.226562 515.117188 746.433594 504.050781 C 742.640625 492.992188 735.042969 484.316406 725.601562 478.980469 C 725.589844 478.980469 725.578125 478.96875 725.578125 478.96875 C 724.480469 478.34375 723.359375 477.773438 722.207031 477.246094 C 711.847656 472.472656 699.714844 471.523438 688.085938 475.523438 C 663.53125 483.949219 650.730469 511.121094 660.171875 535.5625 Z M 872.894531 439.621094 L 974.871094 425.632812 L 876.054688 482.851562 C 828.160156 510.589844 781.449219 540.285156 734.425781 569.480469 C 730.34375 572.023438 725.859375 574.113281 721.042969 575.644531 C 691.445312 585.085938 659.136719 569.8125 647.699219 540.929688 C 635.125 509.148438 651.710938 473.65625 683.675781 462.6875 C 688.578125 461.003906 693.546875 460.003906 698.484375 459.625 C 756.832031 455.152344 814.914062 447.566406 872.894531 439.621094 " fill-opacity="1" fill-rule="nonzero"/></g><g clip-path="url(#204051d388)"><path fill="#ea0f0f" d="M 915.1875 220.515625 C 932.570312 233.019531 948.898438 246.898438 964.007812 262.019531 C 976.164062 274.167969 987.523438 287.109375 998.011719 300.753906 C 1049.160156 367.273438 1079.5625 450.582031 1079.5625 540.972656 C 1079.5625 547.933594 1079.382812 554.855469 1079.015625 561.71875 L 988.558594 561.71875 C 989.023438 554.867188 989.261719 547.945312 989.261719 540.972656 C 989.261719 468.957031 964.214844 402.761719 922.386719 350.664062 C 915.433594 342 908.007812 333.710938 900.152344 325.867188 C 886.820312 312.535156 872.261719 300.441406 856.644531 289.761719 L 915.1875 220.515625 " fill-opacity="1" fill-rule="nonzero"/></g><g clip-path="url(#5a2647134a)"><path fill="#36b209" d="M 372.261719 300.515625 C 382.703125 286.949219 394 274.101562 406.082031 262.019531 C 425.253906 242.847656 446.390625 225.636719 469.152344 210.742188 L 517.273438 287.1875 C 500.210938 298.492188 484.359375 311.46875 469.949219 325.875 L 469.9375 325.867188 C 461.390625 334.414062 453.351562 343.464844 445.871094 352.972656 C 405.144531 404.726562 380.839844 470.015625 380.839844 540.972656 C 380.839844 547.945312 381.078125 554.867188 381.539062 561.71875 L 291.074219 561.71875 C 290.71875 554.855469 290.535156 547.933594 290.535156 540.972656 C 290.535156 450.464844 321.003906 367.078125 372.261719 300.515625 " fill-opacity="1" fill-rule="nonzero"/></g><g clip-path="url(#748512cb92)"><g clip-path="url(#927cb9b3ac)"><path fill="#ffffff" d="M 608.601562 299.660156 L 978.859375 299.660156 L 978.859375 669.917969 L 608.601562 669.917969 Z M 608.601562 299.660156 " fill-opacity="1" fill-rule="nonzero"/></g></g><g clip-path="url(#94411a25a3)"><g clip-path="url(#434bd16dfe)"><g clip-path="url(#cce321cf10)"><g clip-path="url(#80d311f13c)"><path fill="#030303" d="M 618.449219 462.597656 C 638.890625 429.109375 680.746094 415.550781 716.863281 430.796875 C 722.328125 433.105469 727.550781 435.984375 732.230469 439.652344 C 734.777344 441.652344 737.136719 441.796875 740.195312 441.085938 C 811.449219 424.523438 882.722656 408.046875 954.011719 391.652344 C 956.226562 391.140625 959.535156 388.824219 960.699219 391.570312 C 961.515625 393.503906 957.664062 394.570312 955.734375 395.714844 C 894.003906 432.277344 832.261719 468.820312 770.449219 505.246094 C 766.808594 507.390625 764.992188 509.671875 764.421875 514.121094 C 757.8125 565.976562 703.335938 597.300781 655.320312 577.070312 C 610.542969 558.207031 593.113281 504.097656 618.449219 462.597656 Z M 618.449219 462.597656 " fill-opacity="1" fill-rule="nonzero"/></g></g></g></g></svg>