<svg xmlns="http://www.w3.org/2000/svg" xmlns:xlink="http://www.w3.org/1999/xlink" width="1920" zoomAndPan="magnify" viewBox="0 0 1440 809.999993" height="1080" preserveAspectRatio="xMidYMid meet" version="1.0"><defs><clipPath id="6eaa691bd6"><path d="M 708 149.679688 L 1008 149.679688 L 1008 374 L 708 374 Z M 708 149.679688 " clip-rule="nonzero"/></clipPath><clipPath id="8e89f85484"><path d="M 900.257812 266.460938 L 1131.71875 266.460938 L 1131.71875 562 L 900.257812 562 Z M 900.257812 266.460938 " clip-rule="nonzero"/></clipPath><clipPath id="276d7f8aff"><path d="M 422 149.679688 L 711 149.679688 L 711 383 L 422 383 Z M 422 149.679688 " clip-rule="nonzero"/></clipPath><clipPath id="3a2eb5d1dd"><path d="M 308.230469 275 L 532 275 L 532 562 L 308.230469 562 Z M 308.230469 275 " clip-rule="nonzero"/></clipPath><clipPath id="c85b1ba6cf"><path d="M 633 360 L 743 360 L 743 573.429688 L 633 573.429688 Z M 633 360 " clip-rule="nonzero"/></clipPath><clipPath id="4d8841b71e"><path d="M 598.5 330.804688 L 841.5 330.804688 L 841.5 598.484375 L 598.5 598.484375 Z M 598.5 330.804688 " clip-rule="nonzero"/></clipPath><clipPath id="4b2c170c85"><path d="M 720 330.804688 C 652.898438 330.804688 598.5 390.625 598.5 464.421875 C 598.5 538.21875 652.898438 598.042969 720 598.042969 C 787.101562 598.042969 841.5 538.21875 841.5 464.421875 C 841.5 390.625 787.101562 330.804688 720 330.804688 Z M 720 330.804688 " clip-rule="nonzero"/></clipPath><clipPath id="0b950e4e10"><path d="M 635 425 L 999 425 L 999 594 L 635 594 Z M 635 425 " clip-rule="nonzero"/></clipPath><clipPath id="8a6774e0e6"><path d="M 793.726562 273.964844 L 1000.542969 426.949219 L 806.523438 689.238281 L 599.707031 536.253906 Z M 793.726562 273.964844 " clip-rule="nonzero"/></clipPath><clipPath id="1641660433"><path d="M 793.726562 273.964844 L 1000.542969 426.949219 L 806.523438 689.238281 L 599.707031 536.253906 Z M 793.726562 273.964844 " clip-rule="nonzero"/></clipPath><clipPath id="ee76586e20"><path d="M 793.726562 273.964844 L 1000.542969 426.949219 L 806.523438 689.238281 L 599.707031 536.253906 Z M 793.726562 273.964844 " clip-rule="nonzero"/></clipPath></defs><g clip-path="url(#6eaa691bd6)"><path fill="#ff7200" d="M 1007.25 266.847656 C 933.015625 194.445312 831.625 149.757812 719.972656 149.757812 C 716.203125 149.757812 712.4375 149.816406 708.691406 149.917969 L 708.691406 300.675781 C 712.4375 300.519531 716.195312 300.417969 719.972656 300.417969 C 790.082031 300.417969 853.824219 328.203125 900.773438 373.328125 C 915.609375 358.492188 930.4375 343.664062 945.273438 328.824219 C 965.929688 308.167969 986.59375 287.503906 1007.25 266.847656 " fill-opacity="1" fill-rule="nonzero"/></g><g clip-path="url(#8e89f85484)"><path fill="#ef1606" d="M 981.058594 561.503906 L 1131.71875 561.503906 C 1131.742188 531.441406 1128.527344 493.609375 1116.847656 451.667969 C 1091.078125 359.15625 1038.335938 297.742188 1007.25 266.847656 C 971.757812 302.34375 936.265625 337.835938 900.773438 373.328125 C 920.746094 392.933594 955.023438 432.28125 971.625 491.835938 C 979.027344 518.410156 981.074219 542.40625 981.058594 561.503906 " fill-opacity="1" fill-rule="nonzero"/></g><g clip-path="url(#276d7f8aff)"><path fill="#fcea10" d="M 709.738281 149.882812 C 596.867188 152.660156 495.121094 201.066406 422.285156 277.324219 C 436.617188 291.433594 450.949219 305.535156 465.269531 319.640625 C 486.730469 340.753906 508.183594 361.875 529.644531 382.992188 C 575.382812 334.253906 639.5625 303.03125 710.929688 300.59375 L 709.738281 149.882812 " fill-opacity="1" fill-rule="nonzero"/></g><g clip-path="url(#3a2eb5d1dd)"><path fill="#36b209" d="M 424.480469 275.078125 C 352.574219 349.25 308.230469 450.292969 308.230469 561.503906 L 458.886719 561.503906 C 458.886719 491.394531 486.671875 427.652344 531.796875 380.707031 L 424.480469 275.078125 " fill-opacity="1" fill-rule="nonzero"/></g><g clip-path="url(#c85b1ba6cf)"><path fill="#020202" d="M 633.578125 360.183594 L 716.203125 514.6875 C 718.539062 514.945312 720.886719 515.449219 723.1875 516.296875 C 738.539062 521.949219 746.40625 538.964844 740.761719 554.316406 C 735.109375 569.667969 718.089844 577.535156 702.742188 571.890625 C 687.390625 566.246094 679.523438 549.21875 685.167969 533.867188 C 686.179688 531.117188 687.570312 528.621094 689.238281 526.382812 L 633.578125 360.183594 " fill-opacity="1" fill-rule="nonzero"/></g><g clip-path="url(#4d8841b71e)"><g clip-path="url(#4b2c170c85)"><path fill="#ffffff" d="M 598.5 330.804688 L 841.5 330.804688 L 841.5 598.484375 L 598.5 598.484375 Z M 598.5 330.804688 " fill-opacity="1" fill-rule="nonzero"/></g></g><g clip-path="url(#0b950e4e10)"><g clip-path="url(#8a6774e0e6)"><g clip-path="url(#1641660433)"><g clip-path="url(#ee76586e20)"><path fill="#030303" d="M 650.828125 467.253906 C 674.207031 435.746094 717.117188 426.015625 751.710938 444.457031 C 756.941406 447.246094 761.886719 450.585938 766.214844 454.660156 C 768.574219 456.882812 770.910156 457.238281 774.019531 456.808594 C 846.476562 446.738281 918.945312 436.753906 991.421875 426.851562 C 993.675781 426.542969 997.179688 424.535156 998.089844 427.375 C 998.730469 429.371094 994.796875 430.089844 992.773438 431.054688 C 927.996094 461.902344 863.207031 492.730469 798.363281 523.433594 C 794.546875 525.242188 792.53125 527.347656 791.5625 531.730469 C 780.304688 582.777344 723.226562 609.0625 677.230469 584.585938 C 634.335938 561.761719 621.855469 506.300781 650.828125 467.253906 Z M 650.828125 467.253906 " fill-opacity="1" fill-rule="nonzero"/></g></g></g></g></svg>